/* XPM */
static char *_2590_a1577c4a0d94521de0aa7ccd8b5be3555da90e212f5d0e11777bbbf18a9f0a1d[] = {
/* columns rows colors chars-per-pixel */
"50 50 2 1 ",
"  c black",
". c None",
/* pixels */
"..................................................",
"..................................................",
"..................................................",
"..................................................",
"..................................................",
"........................  ........................",
"........................  ........................",
"........................  ........................",
"............... ........  ........ ...............",
"...............  .......  .......  ...............",
"................  .....    .....  ................",
"................  .....    .....  ................",
".................  ....    ....  .................",
".................   ...    ...   .................",
".................   ..      ..   .................",
"........  ........   .      .   ........  ........",
".........   ..........      ..........   .........",
"..........     .......      .......     ..........",
"............    .....        .....    ............",
".............   .....        .....   .............",
"............... ......      ...... ...............",
"..................  ...    ...  ..................",
"..............       ........       ..............",
"..........            ......            ..........",
".....                 ......                 .....",
".....                 ......                 .....",
"..........            ......            ..........",
"..............       ........       ..............",
"..................  ...    ...  ..................",
"............... ......      ...... ...............",
".............   .....        .....   .............",
"............    .....        .....    ............",
"..........     .......      .......     ..........",
".........   ..........      ..........   .........",
"........  ........   .      .   ........  ........",
".................   ..      ..   .................",
".................   ...    ...   .................",
".................  ....    ....  .................",
"................  .....    .....  ................",
"................  .....    .....  ................",
"...............  .......  .......  ...............",
"............... ........  ........ ...............",
"........................  ........................",
"........................  ........................",
"........................  ........................",
"..................................................",
"..................................................",
"..................................................",
"..................................................",
".................................................."
};
