/* XPM */
static char *_e565b227534434285bbc3ea30ea1664LdbCyVDJPKQDwbjg_4[] = {
/* columns rows colors chars-per-pixel */
"50 50 256 2 ",
"   c None",
".  c #0B0606",
"X  c #1C0103",
"o  c #1B0C01",
"O  c #130D0D",
"+  c #170B06",
"@  c #13100F",
"#  c #181303",
"$  c #071715",
"%  c #171713",
"&  c #260404",
"*  c #2D0204",
"=  c #280E02",
"-  c #210D0D",
";  c #210C01",
":  c #310304",
">  c #340D07",
",  c #2E1502",
"<  c #261803",
"1  c #331A02",
"2  c #3A1E02",
"3  c #381309",
"4  c #241615",
"5  c #371D13",
"6  c #0F211F",
"7  c #1C2618",
"8  c #232300",
"9  c #292800",
"0  c #3D2001",
"q  c #362B08",
"w  c #343301",
"e  c #3E3504",
"r  c #28241F",
"t  c #28251D",
"y  c #30301A",
"u  c #0E2523",
"i  c #122624",
"p  c #053030",
"a  c #2D2823",
"s  c #322C27",
"d  c #2F3020",
"f  c #3A332D",
"g  c #3C3426",
"h  c #480705",
"j  c #520B0A",
"k  c #531F06",
"l  c #4E1507",
"z  c #630607",
"x  c #6E0A08",
"c  c #710708",
"v  c #432202",
"b  c #4C2402",
"n  c #4C2A03",
"m  c #422903",
"M  c #542B02",
"N  c #582B02",
"B  c #443602",
"V  c #493802",
"C  c #593703",
"Z  c #633203",
"A  c #6B3703",
"S  c #753D04",
"D  c #423A33",
"F  c #4A3F38",
"G  c #623C35",
"H  c #2C4C20",
"J  c #32513A",
"K  c #3A5824",
"L  c #38743E",
"P  c #4E4B04",
"I  c #574B03",
"U  c #5A5702",
"Y  c #49481D",
"T  c #664601",
"R  c #794804",
"E  c #625702",
"W  c #6B6901",
"Q  c #666301",
"!  c #7A6203",
"~  c #7E7E04",
"^  c #7B740B",
"/  c #4C443C",
"(  c #4D4536",
")  c #524733",
"_  c #68473F",
"`  c #526C20",
"'  c #42702F",
"]  c #527125",
"[  c #427C3C",
"{  c #716634",
"}  c #003F40",
"|  c #084443",
" . c #02504F",
".. c #025859",
"X. c #1A785E",
"o. c #19765E",
"O. c #267250",
"+. c #026C6A",
"@. c #086B6A",
"#. c #1A7960",
"$. c #14726A",
"%. c #087C7A",
"&. c #246968",
"*. c #544A41",
"=. c #5C5147",
"-. c #6B5D53",
";. c #6D6156",
":. c #75675A",
">. c #7C7066",
",. c #8C4A03",
"<. c #834103",
"1. c #924B05",
"2. c #9A4E05",
"3. c #895606",
"4. c #9B5004",
"5. c #945203",
"6. c #A75505",
"7. c #B35C06",
"8. c #866E03",
"9. c #946205",
"0. c #947404",
"q. c #8B7503",
"w. c #BD6207",
"e. c #B47705",
"r. c #A17705",
"t. c #805021",
"y. c #907222",
"u. c #C46406",
"i. c #CC6906",
"p. c #CA6604",
"a. c #D56E06",
"s. c #CA7B06",
"d. c #EB7907",
"f. c #F57D07",
"g. c #837467",
"h. c #71891B",
"j. c #1F8062",
"k. c #188370",
"l. c #07827B",
"z. c #3DA86F",
"x. c #8D8B03",
"c. c #888503",
"v. c #9E9C03",
"b. c #849615",
"n. c #978A03",
"m. c #BB8D06",
"M. c #A5A303",
"N. c #BCB801",
"B. c #CE8D06",
"V. c #FD8308",
"C. c #FE8B08",
"Z. c #FF9208",
"A. c #E48F06",
"S. c #D3A505",
"D. c #F8A807",
"F. c #FFB407",
"G. c #C9C401",
"H. c #C3C204",
"J. c #D1CC01",
"K. c #DCDC05",
"L. c #EAE804",
"P. c #FEFE05",
"I. c #F5F202",
"U. c #9A8474",
"Y. c #928273",
"T. c #A18E7D",
"R. c #90DE50",
"E. c #068A88",
"W. c #089A96",
"Q. c #059797",
"!. c #189F9D",
"~. c #0A9087",
"^. c #03A09D",
"/. c #079EA0",
"(. c #03A5A2",
"). c #03AEAB",
"_. c #49958D",
"`. c #6A9186",
"'. c #7EA3A2",
"]. c #999997",
"[. c #888F8B",
"{. c #A89585",
"}. c #B29E8C",
"|. c #BBA692",
" X c #C4AE9A",
".X c #BDF6F5",
"XX c #B4FDFC",
"oX c #B9F9F8",
"OX c #BBECEB",
"+X c #CBECEC",
"@X c #C7EFEF",
"#X c #D2E7E7",
"$X c #C6F0EF",
"%X c #C3F2F2",
"&X c black",
"*X c black",
"=X c black",
"-X c black",
";X c black",
":X c black",
">X c black",
",X c black",
"<X c black",
"1X c black",
"2X c black",
"3X c black",
"4X c black",
"5X c black",
"6X c black",
"7X c black",
"8X c black",
"9X c black",
"0X c black",
"qX c black",
"wX c black",
"eX c black",
"rX c black",
"tX c black",
"yX c black",
"uX c black",
"iX c black",
"pX c black",
"aX c black",
"sX c black",
"dX c black",
"fX c black",
"gX c black",
"hX c black",
"jX c black",
"kX c black",
"lX c black",
"zX c black",
"xX c black",
"cX c black",
"vX c black",
"bX c black",
"nX c black",
"mX c black",
"MX c black",
"NX c black",
"BX c black",
"VX c black",
"CX c black",
"ZX c black",
"AX c black",
"SX c black",
"DX c black",
"FX c black",
"GX c black",
"HX c black",
"JX c black",
"KX c black",
"LX c black",
"PX c black",
"IX c black",
"UX c black",
/* pixels */
"                                                                                                    ",
"                                                                            %X                      ",
"                                                                            .X                      ",
"                                                             .            XX%X                      ",
"                  %X                                        (.            XX@X                      ",
"                    oXXX                                    ).            XX@X                      ",
"                    @XXX                                    ).            XX@X                      ",
"                      %XXX                                  ).            oX                        ",
"                        .XXX                                ^.          XXoX                        ",
"                          oXXX                              +.          XX.X        @X              ",
"                          $XXXXX                        O   +.          XX%X      XX+X              ",
"                            %XXXXX                    ;.=.  +.  @ @     XX+X    XX%X                ",
"                              %XXXXX                *.}.:.  +.  F G             XX@X                ",
"                                .XXXXX              g. XU.u +.  > j :         XXXX    M b           ",
"                                  .XXXXX            {. XT.i +.  . - & n B     XXOX&...J y           ",
"                                    +X.X          / |. XT.i +.  O 4 l s.q.8 `..X'.(.k.[ H           ",
"                                                  :. X XT.i +.  O - k A.P 8 Y [.!.~.~ I.W           ",
"    oXXXXX                                        Y. X XU.6 +.  O - 2.i.e ( -.$.W.` L.P.W           ",
"      +X%XoXXXXX                                  ) ;.{._ $ +.  O 3 e.A.Y >._./.K G.P.P.W           ",
"          #X+X%X.XXXXXXX                        1.i.w.t.5 $ +.  - 3 e 8.R d %.] H.P.P.I.'           ",
"                  @X%X.XoXXXXX                a.V.V.V.f.6.$ +.  = v 2 2.V.1.P L.P.P.P.K.#.          ",
"                          +X@X%X%X%X        I S.D.Z.Z.Z.B.7 p % 1 n 1.,.p.<.W P.P.P.P.K.o.          ",
"                                            C R ! 0.8.8.B . . t 2.i.a.7 $.y x.P.P.P.P.K.X.          ",
"                                            n.m.B.e.B B < & X 1 f.V.a.# E.#.G.P.P.P.P.K.X.          ",
"                                            9 I E U Q x.1 : : + w.f.u.  | (.b.P.P.P.P.K.X.          ",
"                                            r ) g q e M.E * * . S Z A     Q.j.J.P.P.P.K.X.          ",
"                            XXXXoX.X        t { y.m.0.w < * , x.M.U ,     | W.h.I.P.P.K.X.          ",
"                  XXXXXXXXXXXX%X+X          # T 5.6.u.s.E X o c.~ w o       E.~.x.P.P.K.o.          ",
"            XXXXXXXXXXXX.X%X+X                b u.V.C.F.A.Z z : , N I         %.O.N.P.b.l.          ",
"        XXXXXXXXoX.X%X+X                      v R u.C.D.C.r.x z I ^ v.          %.L v.O...          ",
"    $X%X%X%X%X%X#X                    %X          n ,.9.5.T j h z.R.Q             @.$.%.            ",
"                                    XX@X            = b V ; & o h.^ =               |               ",
"                                  XX.X              * c 3.w P Z ,.4.M                               ",
"                                XXoX                X z 9.V R N d.d.S                               ",
"                              XXXX$X                  j 3.C p.M 7.d.1                               ",
"                            XXXX%X                  # m n 0 2 b 6.i.o                               ",
"                          XXXX%X                      a f C Z v S 6.1                               ",
"                      XXXXXX%X                      4 :.:.q 4.0 1 2 1                               ",
"                    XXXXoX%X                        a Y.;.f < < M o                                 ",
"                  XXoX%X                            r =.*.f f g M ,                                 ",
"                %X%X                                r *./ r *./ y o                                 ",
"                                                      F F @ / *.D                                   ",
"                                                      % a   s *.D                                   ",
"                                                              f s                                   ",
"                                                                                                    ",
"                                                                                                    ",
"                                                                                                    ",
"                                                                                                    ",
"                                                          ].].].].                                  ",
"                                                    ].].].].].].].].].                              "
};
