/* XPM */
static char *_e565b227534434285bbc3ea30ea1664LdbCyVDJPKQDwbjg_2[] = {
/* columns rows colors chars-per-pixel */
"50 50 256 2 ",
"   c None",
".  c #020202",
"X  c #0B0403",
"o  c #0D0C01",
"O  c #0E0D0D",
"+  c #140203",
"@  c #120B01",
"#  c #1B0D01",
"$  c #190605",
"%  c #0D110F",
"&  c #1B1607",
"*  c #180F10",
"=  c #151310",
"-  c #171919",
";  c #091F17",
":  c #240202",
">  c #260904",
",  c #261202",
"<  c #2A1501",
"1  c #2D1C01",
"2  c #271A01",
"3  c #341A02",
"4  c #3A1E02",
"5  c #311502",
"6  c #251A17",
"7  c #36110D",
"8  c #3E2102",
"9  c #382807",
"0  c #373600",
"q  c #3C3B03",
"w  c #25221E",
"e  c #322914",
"r  c #151D20",
"t  c #062C2B",
"y  c #182020",
"u  c #06302F",
"i  c #1F3F2E",
"p  c #01393A",
"a  c #2F2A24",
"s  c #2C2722",
"d  c #302B25",
"f  c #3A342D",
"g  c #2E372F",
"h  c #430C06",
"j  c #550A08",
"k  c #5B0E08",
"l  c #461C03",
"z  c #531407",
"x  c #6F110A",
"c  c #76110B",
"v  c #412102",
"b  c #4D2C02",
"n  c #482A02",
"m  c #532B03",
"M  c #582D03",
"N  c #483701",
"B  c #573A02",
"V  c #5A3816",
"C  c #633202",
"Z  c #6A3602",
"A  c #61360B",
"S  c #733B03",
"D  c #7A3F04",
"F  c #663F1B",
"G  c #43362C",
"H  c #443D35",
"J  c #532E26",
"K  c #6E382E",
"L  c #234434",
"P  c #2D6A3D",
"I  c #366433",
"U  c #4B4901",
"Y  c #554002",
"T  c #574C02",
"R  c #5C5609",
"E  c #50481A",
"W  c #6C4A05",
"Q  c #754604",
"!  c #605E01",
"~  c #685705",
"^  c #785803",
"/  c #605914",
"(  c #7E4C19",
")  c #686306",
"_  c #726F02",
"`  c #776403",
"'  c #7C7703",
"]  c #4B433B",
"[  c #50473F",
"{  c #524F30",
"}  c #625234",
"|  c #42682F",
" . c #5B7C26",
".. c #044948",
"X. c #1B5D48",
"o. c #015153",
"O. c #00575D",
"+. c #045B5C",
"@. c #015856",
"#. c #1D755B",
"$. c #26724D",
"%. c #016564",
"&. c #026867",
"*. c #177A66",
"=. c #037B7C",
"-. c #257E7B",
";. c #544A41",
":. c #5C5247",
">. c #635449",
",. c #6B5F56",
"<. c #76695D",
"1. c #786B5E",
"2. c #884805",
"3. c #924609",
"4. c #944C05",
"5. c #8B5606",
"6. c #9D5105",
"7. c #A55605",
"8. c #B25A04",
"9. c #846105",
"0. c #916204",
"q. c #887903",
"w. c #977A03",
"e. c #B96806",
"r. c #AD7605",
"t. c #B06E05",
"y. c #C96706",
"u. c #CC6906",
"i. c #C46506",
"p. c #D46D06",
"a. c #CF7E06",
"s. c #DC7106",
"d. c #F37D08",
"f. c #F37C07",
"g. c #85776A",
"h. c #7E840D",
"j. c #568636",
"k. c #679935",
"l. c #699A34",
"z. c #0E897D",
"x. c #549544",
"c. c #728046",
"v. c #57A753",
"b. c #4D857E",
"n. c #7ECD52",
"m. c #8F9D13",
"M. c #969403",
"N. c #A09B01",
"B. c #AF8504",
"V. c #A6A808",
"C. c #B2AD01",
"Z. c #ACB810",
"A. c #C28905",
"S. c #FE8308",
"D. c #FB8408",
"F. c #F99A07",
"G. c #E49106",
"H. c #C1BE01",
"J. c #EFA006",
"K. c #FEB507",
"L. c #C3C204",
"P. c #CDCB04",
"I. c #DAD502",
"U. c #FEFD04",
"Y. c #F7F303",
"T. c #EAE602",
"R. c #938273",
"E. c #9E8979",
"W. c #068986",
"Q. c #1A9A83",
"!. c #039F9D",
"~. c #1B9D9B",
"^. c #05A09E",
"/. c #02A8A7",
"(. c #03ACAA",
"). c #04A6A3",
"_. c #04B9B7",
"`. c #03B6B5",
"'. c #02C1C1",
"]. c #999998",
"[. c #AD9B88",
"{. c #AB9886",
"}. c #B4A18E",
"|. c #C3AE9A",
" X c #C5B09B",
".X c #9BD3D1",
"XX c #85C8C7",
"oX c #BFF6F6",
"OX c #B4FEFD",
"+X c #BAFAF9",
"@X c #BCF8F7",
"#X c #CBEDED",
"$X c #D5E6E6",
"%X c #D5E6E6",
"&X c #C7F0EF",
"*X c #C2F4F3",
"=X c #C8F6F5",
"-X c black",
";X c black",
":X c black",
">X c black",
",X c black",
"<X c black",
"1X c black",
"2X c black",
"3X c black",
"4X c black",
"5X c black",
"6X c black",
"7X c black",
"8X c black",
"9X c black",
"0X c black",
"qX c black",
"wX c black",
"eX c black",
"rX c black",
"tX c black",
"yX c black",
"uX c black",
"iX c black",
"pX c black",
"aX c black",
"sX c black",
"dX c black",
"fX c black",
"gX c black",
"hX c black",
"jX c black",
"kX c black",
"lX c black",
"zX c black",
"xX c black",
"cX c black",
"vX c black",
"bX c black",
"nX c black",
"mX c black",
"MX c black",
"NX c black",
"BX c black",
"VX c black",
"CX c black",
"ZX c black",
"AX c black",
"SX c black",
"DX c black",
"FX c black",
"GX c black",
"HX c black",
"JX c black",
"KX c black",
"LX c black",
"PX c black",
"IX c black",
"UX c black",
/* pixels */
"                                                                                                    ",
"                                                                            %X                      ",
"                                                          o.W.              @X                      ",
"                                                          /.(.            #XOX                      ",
"                    *X                                  . _.(.            *X                        ",
"                      oX                                . _.(.            @X                        ",
"                        @X                              . _.(.          #XOX                        ",
"                        OX@X                            . _.!.          &XOX                        ",
"                          OX@X                          . (.%.          oXOX                        ",
"                            OX@X                        . /.%.          oXOX        #X              ",
"                            OXOX@X                      X /.%.          oX        #X@X              ",
"                              OXOXoX                  1.w /.%.6 ]       oX        *X                ",
"                                OXOX*X              ,.{.w /.%.G E.>.    &X      #X+X    C           ",
"                                  OXOX*X            R.[.w /.%.7 K J           #X+X    i E           ",
"                                    OXOX#X        ;.}.[.w /.&.+ 6 - M t.0 0   =XXX).^.$.P           ",
"                                        @X#X      1.|.{.w /.&.X y - 2.J._ ! c..X~.'.I I.H.          ",
"                                                  R. X[.w /.%.X r - 5.w.q E } -.(.X.V.U.L.o         ",
"      &X*X#X#X%X                                  >.R.R.- /.%.X - & t.~ f g.b.).X.V.U.U.L.o         ",
"          OXOX@X*X#X%X                          6.e.( e . (.+.O * 9 G.W E } W.X.V.U.U.U.L.o         ",
"                OXOX@X@X*X#X%X                a.S.S.f.7.# (.@.O > 4 T Q f.p.e ' Y.U.U.U.L.o         ",
"                        OXOX@X*X#X%X        B ` B.F.F.G.9 +.p . # 3 3 2.s.8.Y I.U.U.U.U.Z.;         ",
"                                    %X      r.t.Q ^ ~ N # + % X # M 2.< L i ' U.U.U.U.U.l.O.        ",
"                                          0 ` q.B.5.0.2 : : * A 8.y.s.l =.W.N.U.U.U.U.U.k.O.        ",
"                                          & / / ~ U ! @ : : + m d.S.D.Z p (. .Y.U.U.U.U.k.O.        ",
"                                          ] ,.{ e q L._ : : + # W s.y.,   W.z.C.U.U.U.U.k.O.        ",
"                                          & ) ` ` m T T $ # ) C.q.i.2.    ..`.j.T.U.U.U.k.O.        ",
"                        %X#X*X*X*X&X      o b 4.i.d.u.5 $ X R M.B 4.4       W.).h.Y.U.Y.x.o.        ",
"                %X#X*XoX@XOXOXOX            m 7.D.S.S.7.z k > 2 M 4           W.Q.V.U.P.*.          ",
"            #XoX@XOXOXOXOX                    C 7.d.F.K.9.c z 8 n v #         u W.Q.V.m.&.          ",
"        #XoXOXOXOXOX                            b Q A.t.Y j h M b n @           u =.*.#.o.          ",
"    #X@XOXOX                          *X            5 l , > X N v.v.@             t +.+.            ",
"                                    *XOX            7 c l U 1 ) n.| <                               ",
"                                  oXOX              : x Q B 6.Z 2.S 8                               ",
"                              #XoXOX                X j 3.^ p.S p.s.3                               ",
"                            #X@XOX                    h 3.~ y.Z D y.                                ",
"                          #X@XOX                      8 B 1 m Z S u.                                ",
"                        #X@XOX                        o H V Z S Q S                                 ",
"                      #X@XOX                          f g.G S v # <                                 ",
"                    #X@XOX                            f <.] w O                                     ",
"                  #X@X                                d :.H f a                                     ",
"                $X                                    s ;.H d a                                     ",
"                                                        H H d a                                     ",
"                                                          = = =                                     ",
"                                                                                                    ",
"                                                                                                    ",
"                                                                                                    ",
"                                                                                                    ",
"                                                                                                    ",
"                                                          ].].].                                    ",
"                                                    ].].].].].].].].                                "
};
