/* XPM */
static char *_e565b227534434285bbc3ea30ea1664LdbCyVDJPKQDwbjg_3[] = {
/* columns rows colors chars-per-pixel */
"50 50 256 2 ",
"   c None",
".  c #0A0000",
"X  c #0A0A0B",
"o  c #1A0102",
"O  c #1B0E03",
"+  c #130C0B",
"@  c #160707",
"#  c #141208",
"$  c #0B1E1E",
"%  c #1A1A13",
"&  c #250202",
"*  c #2B0303",
"=  c #270B09",
"-  c #340403",
";  c #380908",
":  c #291703",
">  c #351A02",
",  c #3D1E02",
"<  c #221F1B",
"1  c #152013",
"2  c #292307",
"3  c #322302",
"4  c #3C2D04",
"5  c #3B2405",
"6  c #3D3402",
"7  c #242216",
"8  c #3B3619",
"9  c #302519",
"0  c #052828",
"q  c #0F3A38",
"w  c #292520",
"e  c #2E2A24",
"r  c #3E3931",
"t  c #3B362F",
"y  c #460C09",
"u  c #590807",
"i  c #491A04",
"p  c #51160D",
"a  c #670808",
"s  c #7A0909",
"d  c #442302",
"f  c #4C2803",
"g  c #542404",
"h  c #552C03",
"j  c #592D03",
"k  c #483B02",
"l  c #573303",
"z  c #54241F",
"x  c #6E3803",
"c  c #663704",
"v  c #733B04",
"b  c #6E241F",
"n  c #672C04",
"m  c #42332C",
"M  c #423C34",
"N  c #563E29",
"B  c #0B433F",
"V  c #2F5F36",
"C  c #294A2E",
"Z  c #484202",
"A  c #5B4103",
"S  c #584A04",
"D  c #5A5501",
"F  c #5D5D04",
"G  c #4F5E1C",
"H  c #595310",
"J  c #694603",
"K  c #794305",
"L  c #635503",
"P  c #61401F",
"I  c #7D5603",
"U  c #696802",
"Y  c #686402",
"T  c #736902",
"R  c #787A07",
"E  c #676E11",
"W  c #68740F",
"Q  c #4A4927",
"!  c #4A443B",
"~  c #50423A",
"^  c #6C4720",
"/  c #407A3E",
"(  c #004D4D",
")  c #064845",
"_  c #015453",
"`  c #00565C",
"'  c #015959",
"]  c #055756",
"[  c #105E5C",
"{  c #0F6B5F",
"}  c #206551",
"|  c #2C674E",
" . c #046565",
".. c #026867",
"X. c #026B6A",
"o. c #0A7D7B",
"O. c #037A7A",
"+. c #147467",
"@. c #544C43",
"#. c #584B42",
"$. c #5E5349",
"%. c #6B5B4D",
"&. c #65574B",
"*. c #715F4B",
"=. c #6A5D51",
"-. c #786C5E",
";. c #496E66",
":. c #7C7063",
">. c #884206",
",. c #844404",
"<. c #994D05",
"1. c #855405",
"2. c #965705",
"3. c #A35304",
"4. c #AB5805",
"5. c #B75C05",
"6. c #846A03",
"7. c #977504",
"8. c #BB6407",
"9. c #B47605",
"0. c #C36505",
"q. c #CF6A06",
"w. c #C96606",
"e. c #D66D06",
"r. c #D97006",
"t. c #E37506",
"y. c #EF7B07",
"u. c #E87706",
"i. c #F67E06",
"p. c #9A695C",
"a. c #8D7D6D",
"s. c #708119",
"d. c #669935",
"f. c #619137",
"g. c #188C7A",
"h. c #308F64",
"j. c #798A7A",
"k. c #59C26E",
"l. c #73D161",
"z. c #818208",
"x. c #8F930D",
"c. c #918F0B",
"v. c #A88204",
"b. c #BF9005",
"n. c #BD8A05",
"m. c #A9A502",
"M. c #B2AA01",
"N. c #BAB805",
"B. c #89AD28",
"V. c #C38C05",
"C. c #C09204",
"Z. c #DE9606",
"A. c #FE8307",
"S. c #FF8907",
"D. c #E79506",
"F. c #FC9D06",
"G. c #F19B06",
"H. c #EF8806",
"J. c #A3CD2F",
"K. c #DAD502",
"L. c #C5C305",
"P. c #E0DD04",
"I. c #EAE603",
"U. c #FEFD04",
"Y. c #FAF704",
"T. c #9B8676",
"R. c #99897A",
"E. c #098785",
"W. c #169382",
"Q. c #099997",
"!. c #06A29F",
"~. c #03A2A1",
"^. c #09AFAC",
"/. c #4C9494",
"(. c #4BA5A4",
"). c #07C1BF",
"_. c #0CC2C1",
"`. c #11CDCA",
"'. c #9E9E9A",
"]. c #AD9987",
"[. c #BC9D8A",
"{. c #BEA994",
"}. c #C2AB96",
"|. c #C4AE99",
" X c #BDF6F5",
".X c #BBF8F7",
"XX c #B4FDFC",
"oX c #B9FAF9",
"OX c #B5F7F6",
"+X c #CCEDEC",
"@X c #C7EFEF",
"#X c #D6E5E5",
"$X c #D1E8E8",
"%X c #D8E4E3",
"&X c #C7F0EF",
"*X c #CAF0EF",
"=X c #C3F3F2",
"-X c black",
";X c black",
":X c black",
">X c black",
",X c black",
"<X c black",
"1X c black",
"2X c black",
"3X c black",
"4X c black",
"5X c black",
"6X c black",
"7X c black",
"8X c black",
"9X c black",
"0X c black",
"qX c black",
"wX c black",
"eX c black",
"rX c black",
"tX c black",
"yX c black",
"uX c black",
"iX c black",
"pX c black",
"aX c black",
"sX c black",
"dX c black",
"fX c black",
"gX c black",
"hX c black",
"jX c black",
"kX c black",
"lX c black",
"zX c black",
"xX c black",
"cX c black",
"vX c black",
"bX c black",
"nX c black",
"mX c black",
"MX c black",
"NX c black",
"BX c black",
"VX c black",
"CX c black",
"ZX c black",
"AX c black",
"SX c black",
"DX c black",
"FX c black",
"GX c black",
"HX c black",
"JX c black",
"KX c black",
"LX c black",
"PX c black",
"IX c black",
"UX c black",
/* pixels */
"                                                                            %X                      ",
"                                                            )               =X                      ",
"                                                          _ E.            +X.X                      ",
"                    +X                                    ..~.            =X                        ",
"                    .X=X                                  ..~.             X                        ",
"                      .X=X                                ..~.          +XXX                        ",
"                        XX=X                               .!.          +XXX                        ",
"                          XX=X                            ] X.          =XXX                        ",
"                          XXXX=X                          _ ]            XXX                        ",
"                            XXXX=X                        _ '            XXX        =X              ",
"                              XXXX&X                  &.~ _ ]   M        X        +X                ",
"                                XX.X                $.].=._ ] m R.#.    =X      #X X                ",
"                                XXXX.X              a.|.%._ ] m p.b *           =X    7 2           ",
"                                  XXXX.X            ].}.%._ ' * y * o         +XOX  E.Q.)           ",
"                                      XX=X        =.{.}.%._ ' . @ ; n 9.Z D j.OX(.!.} C 1           ",
"                                        XX&X      a.|.}.&._ ' . + ; <.V.2 S Q /._.} M.K.D           ",
"                                                  R.{.[.z _ ' . @ ; 5.C.% %.;.).g.c.Y.U.U           ",
"        .X=X=X+X$X                              5 P *.T.p _ ] . = g D.v.8 ;.`.E.z.Y.U.U.U           ",
"              XXXX X@X+X+X                    v q.i.8.N = ] ( @ = d S 2.3.| E.G P.U.U.U.U           ",
"                    XXXX.X X+X$X            1.H.S.S.A.e.g ( ) @ = > > u.A.0.4 N.U.U.U.U.Y           ",
"                            XX.X=X+X#X      S 7.b.Z.F.F.I $ $ O : d x x K j L I.U.U.U.U.W           ",
"                                            9.8.1.J Z S 3 . % : d 4.y.f O.{ m.U.U.U.U.U.d.`         ",
"                                            T v.7.7.D 3 & * O j r.A.A.j  .W.N.U.U.U.U.U.d.`         ",
"                                            H H T F m.R * - o > 5.w.r.i 0 Q.B.U.U.U.U.U.d.`         ",
"                                          w &.Q 8 8 Z Y * - o O 6.I ,.    ] g.N.U.U.U.U.d.`         ",
"                            $X$X$X$X      X S V.v.6.A > & & 6 c.N.J d       E.h.K.U.U.U.d.`         ",
"                    $X+X+X=X.X.X.X          4 <.8.t.i.3.o o Z L.D , O       q Q.f.I.U.I./ _         ",
"              +X+X=X.XXXXXXXXX              > 4.A.S.S.G.c a y 3 d h :         [ ^.s.I.x.B           ",
"          +X=XXXXXXXXXXX                      h <.t.G.F.n.u a i h l Y           o.W.E V 0           ",
"    #X=X XXXXXXXXX                    $X+X      > l J 2.J * - 5 x.l.R             o.+.)             ",
"    =XXXXX                          +X.X            - i : S k T J.k.2               0               ",
"                                  +X.XXX            u s g z.k , J J ,                               ",
"                                +X.XXX              ; a 6.k x c 5.q.d                               ",
"                              =X.XXX                  u >.A w.3.3.y.h                               ",
"                            =XXXXX                  # > c : j K ,.t.                                ",
"                          =XXXXX                      # 7 v d 8.,.3.                                ",
"                        =XXXXX                        #.:.^ c > d x                                 ",
"                      =XXXXX                          =.-.! 9 # :                                   ",
"                    =XXX                            < @.@.t 7 %                                     ",
"                  =X                                + ! @.e M                                       ",
"                                                      e r e !                                       ",
"                                                          w M                                       ",
"                                                                                                    ",
"                                                                                                    ",
"                                                                                                    ",
"                                                                                                    ",
"                                                                                                    ",
"                                                                                                    ",
"                                                        '.'.'.'.                                    ",
"                                                  '.'.'.'.'.'.'.'.'.                                "
};
