/* XPM */
static char *_e565b227534434285bbc3ea30ea1664LdbCyVDJPKQDwbjg_1[] = {
/* columns rows colors chars-per-pixel */
"50 50 256 2 ",
"   c None",
".  c #060302",
"X  c #0C0502",
"o  c #0D0A04",
"O  c #0E0D0B",
"+  c #120300",
"@  c #130D00",
"#  c #1B0C01",
"$  c #100F0E",
"%  c #190501",
"&  c #181501",
"*  c #0C1E1D",
"=  c #151413",
"-  c #1A1816",
";  c #191715",
":  c #230D03",
">  c #280804",
",  c #291301",
"<  c #271603",
"1  c #321103",
"2  c #341B02",
"3  c #3B1908",
"4  c #211F1B",
"5  c #2C2400",
"6  c #2E2A05",
"7  c #322E01",
"8  c #3A3404",
"9  c #25241A",
"0  c #332A18",
"q  c #363414",
"w  c #092422",
"e  c #063A3B",
"r  c #2D2924",
"t  c #352B25",
"y  c #38332D",
"u  c #510C05",
"i  c #421D00",
"p  c #461912",
"a  c #6F0E07",
"s  c #631006",
"d  c #7B1408",
"f  c #462402",
"g  c #4A2403",
"h  c #4E2802",
"j  c #432D07",
"k  c #542B02",
"l  c #592E03",
"z  c #4B3402",
"x  c #483804",
"c  c #5D3F03",
"v  c #583408",
"b  c #4D3318",
"n  c #633302",
"m  c #6D3904",
"M  c #753A03",
"N  c #6B3E10",
"B  c #443E37",
"V  c #4E382C",
"C  c #33421E",
"Z  c #16402E",
"A  c #264231",
"S  c #2A513D",
"D  c #325D30",
"F  c #385322",
"G  c #3E6931",
"H  c #494301",
"J  c #564702",
"K  c #585605",
"L  c #45401A",
"P  c #654503",
"I  c #794404",
"U  c #6B5C02",
"Y  c #645903",
"T  c #795704",
"R  c #6F5514",
"E  c #58641B",
"W  c #6B6402",
"Q  c #7F6F03",
"!  c #746602",
"~  c #626E1B",
"^  c #6B7B14",
"/  c #797402",
"(  c #464038",
")  c #48423B",
"_  c #494437",
"`  c #534939",
"'  c #4E6924",
"]  c #6F6723",
"[  c #7C7C36",
"{  c #014C4B",
"}  c #114241",
"|  c #005353",
" . c #00575E",
".. c #015A5A",
"X. c #0C5957",
"o. c #105B5A",
"O. c #1A5147",
"+. c #1C615B",
"@. c #31645C",
"#. c #387944",
"$. c #026766",
"%. c #016867",
"&. c #026B6B",
"*. c #0D6961",
"=. c #006F73",
"-. c #0F7B6E",
";. c #524B42",
":. c #5C5147",
">. c #6B5A4F",
",. c #66564B",
"<. c #655B50",
"1. c #766458",
"2. c #6B6056",
"3. c #7C6E61",
"4. c #864404",
"5. c #884906",
"6. c #954D04",
"7. c #875A02",
"8. c #995505",
"9. c #A24E04",
"0. c #A65505",
"q. c #B65D05",
"w. c #8C6005",
"e. c #917104",
"r. c #BE6206",
"t. c #BB7904",
"y. c #CA6705",
"u. c #D56D06",
"i. c #DF7306",
"p. c #D47506",
"a. c #E97806",
"s. c #F57E07",
"d. c #857668",
"f. c #9C7D6C",
"g. c #778513",
"h. c #7D9C22",
"j. c #669935",
"k. c #1F8065",
"l. c #67B754",
"z. c #928C01",
"x. c #A98B04",
"c. c #BC8F03",
"v. c #A59B00",
"b. c #B2AA00",
"n. c #B8B504",
"m. c #A4AD0F",
"M. c #CF9005",
"N. c #D98E05",
"B. c #FE8307",
"V. c #FE8807",
"C. c #FF9107",
"Z. c #FD9D07",
"A. c #E99006",
"S. c #C3BC01",
"D. c #D7A505",
"F. c #EFA006",
"G. c #FFB106",
"H. c #EFB006",
"J. c #C6C504",
"K. c #CCC802",
"L. c #D0C900",
"P. c #D8D404",
"I. c #E9E503",
"U. c #FEFD04",
"Y. c #968676",
"T. c #AC8C7A",
"R. c #058887",
"E. c #108D8C",
"W. c #019E9C",
"Q. c #139593",
"!. c #03A19F",
"~. c #14A09C",
"^. c #03A2A0",
"/. c #01A8A8",
"(. c #12A3A0",
"). c #03B5B4",
"_. c #4A958C",
"`. c #5FF094",
"'. c #9D9B99",
"]. c #A59281",
"[. c #BAA591",
"{. c #C4AE98",
"}. c #C2AB96",
"|. c #97CFC9",
" X c #BDF7F6",
".X c #BBF8F7",
"XX c #B4FDFC",
"oX c #B9F9F8",
"OX c #DEDFDF",
"+X c #CCECEB",
"@X c #D4E6E6",
"#X c #D0E9E8",
"$X c #C7F0EF",
"%X c #C2F3F2",
"&X c black",
"*X c black",
"=X c black",
"-X c black",
";X c black",
":X c black",
">X c black",
",X c black",
"<X c black",
"1X c black",
"2X c black",
"3X c black",
"4X c black",
"5X c black",
"6X c black",
"7X c black",
"8X c black",
"9X c black",
"0X c black",
"qX c black",
"wX c black",
"eX c black",
"rX c black",
"tX c black",
"yX c black",
"uX c black",
"iX c black",
"pX c black",
"aX c black",
"sX c black",
"dX c black",
"fX c black",
"gX c black",
"hX c black",
"jX c black",
"kX c black",
"lX c black",
"zX c black",
"xX c black",
"cX c black",
"vX c black",
"bX c black",
"nX c black",
"mX c black",
"MX c black",
"NX c black",
"BX c black",
"VX c black",
"CX c black",
"ZX c black",
"AX c black",
"SX c black",
"DX c black",
"FX c black",
"GX c black",
"HX c black",
"JX c black",
"KX c black",
"LX c black",
"PX c black",
"IX c black",
"UX c black",
/* pixels */
"                                                                                                    ",
"                                                                          +X                        ",
"                                                                          %X                        ",
"                  +X                                      ..R.             X                        ",
"                     X                                    $.^.          +XXX                        ",
"                       X                                  $.^.          %XXX                        ",
"                      XX.X                                $.^.           XXX                        ",
"                        XX.X                              $.^.          oX                          ",
"                          XX.X                            $.^.        +XXX                          ",
"                            XX.X                          $.^.        +XXX        +X                ",
"                            XXXX.X                        $.!.        +XXX        %X                ",
"                              XXXX%X                    - $.^.o       +XoX      +XoX                ",
"                                XXXX%X                Y.,.$.W.t 3.4           +X.X                  ",
"                                  XXXX%X            d.{.>.| %.t T.1.           X                    ",
"                                    XXoX+X          ].}.>.| | > p p :       %XXX    ..S A           ",
"                                        .X        :.[.}.>.| ... $ : 9.t.J [ |.    ).(.+.O.          ",
"                                                  d.{.}.,.| ..X - > 9.Z.e.Y q   R.~.~ v.z.          ",
"         X%X%X+X@X                                ].{.f.3 | ..X ; 1 y.N.K _ ` &.Q.E I.U.J.o         ",
"            XXXXoX%X+X+X                          1.Y.V + | ..X ; v V.c.B ]._.Q.C S.U.U.m.w         ",
"                    XXXXoX%X+X@X                l 5.v : . | | o $ J D.x.b @.E.C n.U.U.U.j. .        ",
"                          XXXX.X%X#X          8.s.B.a.9.1 | { . o f z c y.R 9 b.U.U.U.U.j. .        ",
"                                            J M.F.F.Z.C.5.e e X 2 M q.I u.q.z P.U.U.U.U.j. .        ",
"                                            8 U T J Q e.x . ; j 0.a.B.n 0 q W I.U.U.U.U.j. .        ",
"                                          & U ! x.U H m 2 # O 5.B.B.B.M =.-.b.U.U.U.U.U.j. .        ",
"                                          & U Y 6 8 J.U # , X 4.u.y.a.i &.).^ U.U.U.U.U.j. .        ",
"                            #X#X#X          y 2.) $ / K.5 : + z Q I 5.    /.k.L.U.U.U.U.j. .        ",
"                    +X+X%X XoXoX.X          L ] ~ x @ K < # H J.J.c f     ..).g.U.U.U.U.j. .        ",
"            @X+X$X XoXXXXXXX                7.t.w.I n g % + 7 W 7 , #       R.-.n.U.U.I.#.|         ",
"          $X.XXXXXXXXX                      : g 0.a.B.A.T s u : 2 h           R.D K.U.m.*.          ",
"    +X%X.XXXXXXXXX                    +X      k i.B.V.G.H.I a g n h X         * o.F b.G X.          ",
"  @XoXXXXX                          %XoX        f 8.p.F.N.P u , ' h.7           * o.Z X.w           ",
"                                  %XXX            X 2 P z @ 5 g.`.l.5             * o.}             ",
"                                %XXX                # 1 j K H K g.x 2                               ",
"                               XXX                  1 d w.x 5.k f M m                               ",
"                            oXXX                    + s 8.c u.4.n r.I                               ",
"                          oXXX                        > w.J f k n B.6.                              ",
"                        oXXX                          . & m 4.q.8.s.5.                              ",
"                      oXXX                            r ) N y.l k 0.2                               ",
"                    .XXX                              <.d.V m f ,                                   ",
"                @X X                                - <.<.t 4 0 #                                   ",
"              OX                                    9 ;.B r ;.B                                     ",
"                                                      ( ( r ;.B                                     ",
"                                                      4 B 9 ( ` 4                                   ",
"                                                            - B 4                                   ",
"                                                              =                                     ",
"                                                                                                    ",
"                                                                                                    ",
"                                                                                                    ",
"                                                          '.'.'.'.                                  ",
"                                                  '.'.'.'.'.'.'.'.'.'.                              "
};
